<svg width="153" height="28" viewBox="0 0 153 28" fill="none" xmlns="http://www.w3.org/2000/svg">
<path d="M150.645 0.00371908C149.67 0.0869389 148.925 0.910047 148.94 1.88852V25.1911C148.925 26.1698 149.67 26.9933 150.645 27.0765C151.145 27.1075 151.637 26.9302 152.002 26.5867C152.368 26.2432 152.575 25.764 152.575 25.2625L152.575 1.81776C152.575 1.31614 152.368 0.836832 152.002 0.493314C151.637 0.149796 151.146 -0.0273868 150.645 0.00371908Z" fill="black"/>
<path d="M51.7014 0.195048C50.7936 -0.259411 49.6893 0.108167 49.235 1.01601L39.0792 21.31C39.0775 21.3134 39.074 21.3155 39.0703 21.3155C39.0665 21.3155 39.0631 21.3134 39.0614 21.31L28.9055 1.01601C28.4378 0.133929 27.3515 -0.21347 26.4588 0.233563C25.5661 0.680596 25.1935 1.75855 25.6196 2.66143L37.3306 26.0648C37.6422 26.6878 38.2792 27.0812 38.9758 27.0806C39.0069 27.0806 39.0387 27.0768 39.0701 27.0753C39.1016 27.0739 39.1333 27.0806 39.1648 27.0806C39.8613 27.0811 40.4983 26.6878 40.8099 26.0648L52.5224 2.66143C52.9767 1.75365 52.6091 0.649472 51.7014 0.195048Z" fill="black"/>
<path d="M110.196 0.185727C109.218 0.269798 108.472 1.09462 108.487 2.07519V19.8617C108.487 19.866 108.484 19.87 108.48 19.8714C108.476 19.8728 108.472 19.8714 108.469 19.8678L93.7816 0.713134C93.2057 -0.0365666 92.1525 -0.222124 91.3551 0.285618C90.8214 0.636564 90.5044 1.23618 90.5149 1.87483V25.1873C90.5004 26.1678 91.2463 26.9926 92.2232 27.0765C92.725 27.1076 93.2172 26.93 93.5835 26.5857C93.9498 26.2414 94.1575 25.7611 94.1575 25.2584V7.21879C94.1577 7.21468 94.1603 7.21107 94.1641 7.20971C94.168 7.20835 94.1724 7.20953 94.175 7.21268L108.863 26.3668C109.448 27.1297 110.525 27.307 111.324 26.7719C111.838 26.4173 112.14 25.8298 112.13 25.206V2.00384C112.13 1.50142 111.922 1.02104 111.556 0.676711C111.19 0.332234 110.697 0.154628 110.196 0.185727Z" fill="black"/>
<path d="M141.67 0.000218552H119.659C118.68 -0.0146421 117.856 0.730076 117.773 1.70534C117.742 2.20586 117.92 2.6969 118.263 3.06227C118.607 3.42764 119.086 3.63489 119.587 3.63499L128.802 3.63499C128.807 3.63514 128.811 3.63948 128.812 3.64489L128.811 25.1911C128.797 26.1696 129.541 26.993 130.516 27.0765C131.017 27.1074 131.508 26.9301 131.873 26.5866C132.238 26.2431 132.446 25.7639 132.446 25.2625V3.64489C132.446 3.63964 132.45 3.6353 132.455 3.63499L141.599 3.63499C142.578 3.64954 143.401 2.9049 143.484 1.92987C143.515 1.42929 143.338 0.938212 142.994 0.57283C142.651 0.207447 142.171 0.000232022 141.67 0.000218552Z" fill="black"/>
<path d="M15.3868 1.01517C15.0595 0.361384 14.3757 -0.0361432 13.6456 0.0028718C12.9168 -0.0344915 12.2348 0.362752 11.9078 1.01517L0.194802 24.4194C-0.259568 25.3272 0.107989 26.4314 1.01576 26.8858C1.92354 27.3402 3.02777 26.9726 3.48214 26.0648L6.35944 20.3158C6.36102 20.3124 6.36443 20.3102 6.36818 20.3102H20.9265C20.9302 20.3102 20.9336 20.3124 20.9352 20.3158L23.8125 26.0648C24.2669 26.9725 25.3711 27.34 26.2787 26.8856C27.1864 26.4313 27.5539 25.3271 27.0996 24.4194L15.3868 1.01517ZM7.74887 17.5389L13.6386 5.77057C13.6402 5.76715 13.6436 5.76496 13.6473 5.76496C13.6511 5.76496 13.6545 5.76715 13.6561 5.77057L19.5461 17.5389C19.5476 17.542 19.5475 17.5455 19.5457 17.5484C19.5439 17.5513 19.5407 17.553 19.5373 17.5529H7.75761C7.75423 17.553 7.75107 17.5513 7.74928 17.5484C7.74749 17.5455 7.74733 17.542 7.74887 17.5389Z" fill="black"/>
<path d="M84.9896 24.5906C84.9678 24.5289 84.9425 24.4685 84.9136 24.4098L74.1278 2.6163C73.5737 1.33555 72.4198 0.41352 71.0484 0.155635C69.6769 -0.10225 68.267 0.337669 67.2855 1.32967L64.6353 6.37542L58.2753 19.7717C57.2251 21.7958 55.5692 23.136 53.5965 23.6051L63.335 3.99641C63.3546 3.95651 63.3726 3.91603 63.3892 3.87497C63.5484 3.51714 63.9035 3.28676 64.2952 3.28728C64.332 3.28791 64.3688 3.29063 64.4053 3.29544L66.007 0.446388C64.9808 -0.0111788 63.8141 -0.0386049 62.7676 0.370238C61.7211 0.779081 60.8819 1.59012 60.4376 2.62212L49.6405 24.3655C49.6239 24.3967 49.6085 24.4284 49.5939 24.4613C49.354 24.9925 49.3902 25.6076 49.6908 26.1068C49.9915 26.6061 50.5181 26.9259 51.0998 26.9624C51.3937 26.9868 51.691 26.9991 51.9848 26.9991C55.8503 26.9991 59.2716 24.839 61.1357 21.22C61.1436 21.2046 61.1514 21.1891 61.1587 21.1731L67.2272 8.38924L67.229 8.38516L67.2829 8.27217L69.0593 4.54013L69.0567 4.53459L69.324 3.97137C69.3353 3.94768 69.3459 3.9239 69.3558 3.90002C69.5096 3.52909 69.8716 3.28727 70.2731 3.28727C70.6747 3.28727 71.0367 3.52909 71.1905 3.90002C71.2036 3.93234 71.2196 3.96438 71.2339 3.99583L80.9381 23.6043C78.9793 23.1336 77.3315 21.7943 76.2829 19.7723L69.8963 6.3032L68.1329 10.0647L73.3989 21.1708C73.4064 21.1865 73.4143 21.2025 73.4222 21.2183C75.3151 24.8912 78.6397 26.9973 82.5465 26.9973C82.8549 26.9973 83.1671 26.9836 83.4743 26.9568C83.6689 26.9401 83.8587 26.8878 84.0344 26.8025C84.8887 26.4342 85.3076 25.4634 84.9893 24.5892" fill="black"/>
</svg>
