<svg width="39" height="32" viewBox="0 0 39 32" fill="none" xmlns="http://www.w3.org/2000/svg">
<path d="M12.6258 28.5093C12.634 27.6139 12.2856 26.7525 11.6573 26.1145C11.0291 25.4766 10.173 25.1151 9.27768 25.1094C8.38254 25.104 7.52195 25.455 6.88594 26.0852C6.24997 26.7154 5.89101 27.5728 5.8882 28.4679C5.8854 29.3633 6.23918 30.2228 6.87126 30.8568C7.50313 31.4906 8.36162 31.8472 9.25698 31.8472C10.145 31.8472 10.9972 31.4965 11.6282 30.8714C12.2591 30.2462 12.6176 29.3973 12.6258 28.5093ZM7.77329 28.5093C7.7651 28.1042 7.91967 27.7127 8.20231 27.4223C8.48494 27.1319 8.87216 26.967 9.27726 26.9642C9.68256 26.9616 10.0719 27.1213 10.3584 27.4079C10.645 27.6944 10.8047 28.0837 10.8019 28.4888C10.7991 28.8941 10.6342 29.2813 10.3438 29.5639C10.0536 29.8464 9.66207 30.0009 9.25702 29.9927C8.86357 29.9927 8.48607 29.8364 8.20796 29.5583C7.92963 29.28 7.77329 28.9027 7.77329 28.5093Z" fill="black"/>
<path d="M21.9286 28.5097C21.9286 27.6243 21.577 26.7753 20.9509 26.1494C20.3251 25.5233 19.4761 25.1717 18.5907 25.1717C17.7055 25.1717 16.8565 25.5233 16.2304 26.1494C15.6045 26.7753 15.2527 27.6243 15.2527 28.5097C15.2527 29.3949 15.6045 30.2439 16.2304 30.87C16.8565 31.4958 17.7055 31.8477 18.5907 31.8477C19.4761 31.8477 20.3251 31.4958 20.9509 30.87C21.577 30.2439 21.9286 29.3949 21.9286 28.5097ZM17.1073 28.5097C17.1152 28.1186 17.2739 27.7458 17.5505 27.4694C17.8271 27.1928 18.1999 27.034 18.5907 27.0262C18.9842 27.0262 19.3617 27.1825 19.6398 27.4606C19.9181 27.7387 20.0744 28.1162 20.0744 28.5097C20.0828 28.9057 19.9293 29.288 19.6493 29.568C19.3692 29.8481 18.9868 30.0018 18.5907 29.9931C18.1973 29.9931 17.82 29.8368 17.5419 29.5587C17.2636 29.2804 17.1073 28.9031 17.1073 28.5097Z" fill="black"/>
<path d="M23.814 12.8709H5.82626L5.11524 9.22376C5.0704 9.04461 4.97769 8.88098 4.84705 8.75033C4.7164 8.61969 4.55277 8.52698 4.37362 8.48214L1.12835 7.86406V7.86384C0.8828 7.81814 0.629051 7.8701 0.421253 8.0085C0.213427 8.14713 0.0679062 8.36142 0.015729 8.60567C-0.0293291 8.84756 0.0232744 9.09743 0.162547 9.3003C0.301599 9.50317 0.515679 9.64243 0.757557 9.68749L3.41554 10.1818L5.67167 21.5555V21.5557C5.82776 22.3277 6.24472 23.0224 6.85247 23.5234C7.46045 24.0242 8.22208 24.3008 9.00965 24.3064H19.1471C19.884 24.3094 20.6018 24.0729 21.1928 23.6327C21.7837 23.1923 22.2155 22.5718 22.4231 21.8647L24.7103 14.0144C24.7814 13.7369 24.7247 13.442 24.5557 13.2109C24.3742 12.9888 24.1004 12.8633 23.8139 12.8709H23.814ZM20.6306 21.3702C20.5465 21.6966 20.3538 21.9847 20.0841 22.1869C19.8144 22.3891 19.4841 22.4934 19.1471 22.4829H9.00969C8.65333 22.4829 8.30817 22.3598 8.03199 22.1345C7.75604 21.9092 7.56654 21.5955 7.49517 21.2465L6.19709 14.7252H22.5777L20.6306 21.3702Z" fill="black"/>
<ellipse cx="27.9287" cy="10.4997" rx="10.5" ry="10.4997" fill="#005CFF"/>
<path d="M26.0247 14C25.7687 14 25.5807 13.944 25.4607 13.832C25.3487 13.712 25.2927 13.54 25.2927 13.316C25.2927 13.18 25.3287 13.048 25.4007 12.92C25.4727 12.792 25.5767 12.656 25.7127 12.512L28.1247 9.94403C28.4927 9.56003 28.7567 9.21203 28.9167 8.90003C29.0767 8.58003 29.1567 8.26003 29.1567 7.94003C29.1567 7.54003 29.0287 7.23603 28.7727 7.02803C28.5247 6.82003 28.1607 6.71603 27.6807 6.71603C27.4087 6.71603 27.1367 6.75603 26.8647 6.83603C26.5927 6.90803 26.3167 7.03603 26.0367 7.22003C25.8927 7.31603 25.7567 7.35603 25.6287 7.34003C25.5087 7.32403 25.4007 7.27203 25.3047 7.18403C25.2167 7.09603 25.1567 6.98803 25.1247 6.86003C25.0927 6.73203 25.0967 6.60403 25.1367 6.47603C25.1847 6.34003 25.2807 6.22403 25.4247 6.12803C25.7687 5.89603 26.1527 5.72003 26.5767 5.60003C27.0087 5.48003 27.4407 5.42003 27.8727 5.42003C28.4807 5.42003 28.9927 5.51203 29.4087 5.69603C29.8247 5.88003 30.1407 6.14803 30.3567 6.50003C30.5727 6.85203 30.6807 7.28003 30.6807 7.78403C30.6807 8.12003 30.6247 8.44803 30.5127 8.76803C30.4087 9.08803 30.2447 9.41203 30.0207 9.74003C29.8047 10.068 29.5207 10.416 29.1687 10.784L26.9127 13.136V12.728H30.4407C30.6567 12.728 30.8207 12.78 30.9327 12.884C31.0447 12.988 31.1007 13.144 31.1007 13.352C31.1007 13.56 31.0447 13.72 30.9327 13.832C30.8207 13.944 30.6567 14 30.4407 14H26.0247Z" fill="white"/>
</svg>
