<svg width="36" height="35" viewBox="0 0 36 35" fill="none" xmlns="http://www.w3.org/2000/svg">
<path d="M8.70369 34.7675C8.30831 34.6283 7.87645 34.55 7.52365 34.3395C5.83538 33.3319 5.80301 30.9008 7.44982 29.8221C7.61749 29.7123 7.64844 29.6238 7.59646 29.4348C6.44088 25.2308 5.28827 21.0259 4.1454 16.8184C3.71276 15.2255 3.30584 13.6255 2.88674 12.029C2.8665 11.9518 2.84185 11.8758 2.8153 11.7858H0V10.6123H3.3739C3.66944 10.7166 3.813 10.9309 3.88913 11.2328C4.09577 12.0524 4.32632 12.866 4.54758 13.6819C4.74703 14.4175 4.94668 15.153 5.14994 15.9022H5.48005C11.734 15.9022 17.9879 15.9038 24.2418 15.8981C24.6018 15.8978 24.8769 15.9944 25.0353 16.3333V16.6755C25.0055 16.7486 24.9672 16.8193 24.9469 16.8949C24.126 19.9511 23.3065 23.0076 22.4874 26.0644C22.1652 27.2672 21.3131 27.9232 20.0665 27.9234C16.4075 27.9238 12.7485 27.9241 9.08944 27.922C8.87307 27.9218 8.6567 27.8995 8.42424 27.8866C8.53367 28.2858 8.65714 28.6662 8.73762 29.0556C8.78686 29.2939 8.88906 29.355 9.12562 29.3545C12.801 29.3466 16.4763 29.3467 20.1516 29.3501C21.5774 29.3514 22.7065 30.3824 22.8697 31.8171C23.0194 33.1333 22.093 34.3881 20.746 34.693C20.6278 34.7197 20.5088 34.7427 20.3901 34.7675H19.9989C19.9441 34.7532 19.8901 34.7334 19.8344 34.7255C17.9238 34.4529 16.9124 32.4088 17.8538 30.7217C17.8873 30.6618 17.9168 30.5997 17.9525 30.5305H11.1567C11.2144 30.6365 11.2616 30.7204 11.3063 30.8055C12.0689 32.2596 11.3731 34.0484 9.82632 34.5949C9.60599 34.6727 9.37162 34.7109 9.14376 34.7675H8.70369ZM23.6771 17.0863H5.44215C5.46269 17.1781 5.47687 17.2567 5.49799 17.3334C6.27443 20.1565 7.05204 22.9793 7.82809 25.8025C8.02387 26.5148 8.40703 26.8094 9.15173 26.8095C12.7692 26.8097 16.3867 26.8097 20.0042 26.8095C20.801 26.8095 21.1651 26.5275 21.3684 25.7629C21.9306 23.6485 22.4948 21.5346 23.0577 19.4203C23.2624 18.6516 23.4659 17.8826 23.6771 17.0863ZM20.2017 33.603C21.0543 33.5993 21.7384 32.9152 21.7411 32.0636C21.7439 31.2095 21.0397 30.5095 20.1824 30.514C19.3374 30.5184 18.6439 31.2135 18.6419 32.0582C18.6397 32.9156 19.3376 33.6067 20.2017 33.603ZM8.91336 33.6032C9.76828 33.6065 10.4578 32.9315 10.4659 32.0833C10.4743 31.2188 9.78969 30.5172 8.93463 30.514C8.0849 30.5107 7.38943 31.1938 7.38215 32.0389C7.37466 32.9087 8.05116 33.5999 8.91336 33.6032Z" fill="black"/>
<ellipse cx="25.4473" cy="10.4997" rx="10.5" ry="10.4997" fill="#005CFF"/>
<path d="M27.9833 12.98C28.1753 12.98 28.3193 13.024 28.4153 13.112C28.5193 13.2 28.5713 13.324 28.5713 13.484C28.5713 13.828 28.3753 14 27.9833 14H23.3513C23.1753 14 23.0353 13.952 22.9313 13.856C22.8353 13.752 22.7873 13.624 22.7873 13.472C22.7873 13.288 22.8593 13.12 23.0033 12.968L25.8233 9.88404C26.1993 9.47604 26.4713 9.10404 26.6393 8.76804C26.8073 8.43204 26.8913 8.10004 26.8913 7.77204C26.8913 7.34804 26.7673 7.02404 26.5193 6.80004C26.2793 6.56804 25.9353 6.45204 25.4873 6.45204C24.8073 6.45204 24.1313 6.71204 23.4593 7.23204C23.3713 7.28804 23.2953 7.33204 23.2313 7.36404C23.1753 7.38804 23.1153 7.40004 23.0513 7.40004C22.9393 7.40004 22.8433 7.34804 22.7633 7.24404C22.6833 7.14004 22.6433 7.01604 22.6433 6.87204C22.6433 6.67204 22.7233 6.51204 22.8833 6.39204C23.2193 6.10404 23.6233 5.87604 24.0953 5.70804C24.5673 5.53204 25.0433 5.44404 25.5233 5.44404C26.3153 5.44404 26.9433 5.64804 27.4073 6.05604C27.8793 6.45604 28.1153 7.00004 28.1153 7.68804C28.1153 8.17604 28.0073 8.64004 27.7913 9.08004C27.5833 9.52004 27.2313 10.012 26.7353 10.556L24.4673 12.98H27.9833Z" fill="white"/>
</svg>
